<svg id="visual" viewBox="0 0 900 600" width="900" height="600" xmlns="http://www.w3.org/2000/svg" xmlns:xlink="http://www.w3.org/1999/xlink" version="1.1"><path d="M0 201L21.5 199C43 197 86 193 128.8 176C171.7 159 214.3 129 257.2 134C300 139 343 179 385.8 190C428.7 201 471.3 183 514.2 163.7C557 144.3 600 123.7 642.8 122.8C685.7 122 728.3 141 771.2 154.2C814 167.3 857 174.7 878.5 178.3L900 182L900 0L878.5 0C857 0 814 0 771.2 0C728.3 0 685.7 0 642.8 0C600 0 557 0 514.2 0C471.3 0 428.7 0 385.8 0C343 0 300 0 257.2 0C214.3 0 171.7 0 128.8 0C86 0 43 0 21.5 0L0 0Z" fill="#212936" stroke-linecap="round" stroke-linejoin="miter"></path></svg>